<?xml version="1.0" encoding="utf-8"?>
<svg xmlns="http://www.w3.org/2000/svg" xmlns:xlink="http://www.w3.org/1999/xlink" version= "1.1" width="720px" height="1424px" viewBox="0 0 720 1424">
<g id="layer1">
<g>
<g style="fill:rgb(0,0,0); fill-opacity:0.3019608; stroke-linejoin: miter">
<path d="M1181.304,310.74927L1181.304,310.74927L34.578094,310.7489C33.112885,310.7489,31.92503,309.56116,31.92503,308.09595C31.92503,306.6308,33.112885,305.443,34.578094,305.443L34.578094,305.443L1181.304,305.44336C1182.7693,305.44336,1183.957,306.6311,1183.957,308.0963C1183.957,309.56146,1182.7693,310.74927,1181.304,310.74927 Z"/>
</g>
<g style="fill:rgb(0,0,0); fill-opacity:0.30588236; stroke-linejoin: miter">
<path d="M1181.304,545.87366L1181.304,545.87366L34.57808,545.8733C33.11287,545.8733,31.925014,544.68555,31.925014,543.22034C31.925014,541.7552,33.11287,540.5674,34.57808,540.5674L34.57808,540.5674L1181.304,540.56775C1182.7693,540.56775,1183.9569,541.7556,1183.9569,543.2207C1183.9569,544.6859,1182.7693,545.87366,1181.304,545.87366 Z"/>
</g>
<g style="fill:rgb(0,0,0); fill-opacity:0.30588236; stroke-linejoin: miter">
<path d="M1181.3041,780.99817L1181.3041,780.99817L34.577953,780.9977C33.112743,780.9977,31.924889,779.80994,31.924889,778.3448C31.924889,776.87964,33.112743,775.6918,34.577953,775.6918L34.577953,775.6918L1181.3041,775.69226C1182.7693,775.69226,1183.957,776.88007,1183.957,778.3452C1183.957,779.8104,1182.7693,780.99817,1181.3041,780.99817 Z"/>
</g>
<g style="fill:rgb(0,0,0); fill-opacity:0.30588236; stroke-linejoin: miter">
<path d="M1181.304,1016.12256L1181.304,1016.12256L34.577934,1016.12195C33.11273,1016.12195,31.92487,1014.9342,31.92487,1013.4691C31.92487,1012.0039,33.11273,1010.81604,34.577934,1010.81604L34.577934,1010.81604L1181.304,1010.8166C1182.7692,1010.8166,1183.9569,1012.00433,1183.9569,1013.4695C1183.9569,1014.9347,1182.7692,1016.12256,1181.304,1016.12256 Z"/>
</g>
<g style="fill:rgb(0,0,0); fill-opacity:0.30588236; stroke-linejoin: miter">
<path d="M1181.3037,1251.2468L1181.3037,1251.2468L34.57792,1251.2465C33.112713,1251.2465,31.924854,1250.0587,31.924854,1248.5936C31.924854,1247.1284,33.112713,1245.9406,34.57792,1245.9406L34.57792,1245.9406L1181.3037,1245.9409C1182.769,1245.9409,1183.9568,1247.1288,1183.9568,1248.5939C1183.9568,1250.0591,1182.769,1251.2468,1181.3037,1251.2468 Z"/>
</g>
</g>
<g>
<g style="fill:rgb(0,0,0); fill-opacity:0.3019608; stroke-linejoin: miter">
<path d="M375.46957,204.98174L375.46957,204.98174L375.46927,1351.7079C375.46927,1353.1731,374.2815,1354.361,372.8163,1354.361C371.35114,1354.361,370.16333,1353.1731,370.16333,1351.7079L370.16333,1351.7079L370.16367,204.98174C370.16367,203.51648,371.35144,202.32874,372.81662,202.32874C374.2818,202.32874,375.46957,203.51648,375.46957,204.98174 Z"/>
</g>
<g style="fill:rgb(0,0,0); fill-opacity:0.30588236; stroke-linejoin: miter">
<path d="M610.5941,204.98175L610.5941,204.98175L610.5938,1351.708C610.5938,1353.1732,609.406,1354.3611,607.94086,1354.3611C606.4757,1354.3611,605.28784,1353.1732,605.28784,1351.708L605.28784,1351.708L605.2882,204.98175C605.2882,203.5165,606.476,202.32875,607.94116,202.32875C609.4064,202.32875,610.5941,203.5165,610.5941,204.98175 Z"/>
</g>
<g style="fill:rgb(0,0,0); fill-opacity:0.30588236; stroke-linejoin: miter">
<path d="M845.7186,204.98178L845.7186,204.98178L845.71826,1351.708C845.71826,1353.1732,844.53046,1354.3611,843.0653,1354.3611C841.60016,1354.3611,840.4123,1353.1732,840.4123,1351.708L840.4123,1351.708L840.4127,204.98178C840.4127,203.51653,841.6005,202.32878,843.0657,202.32878C844.5309,202.32878,845.7186,203.51653,845.7186,204.98178 Z"/>
</g>
<g style="fill:rgb(0,0,0); fill-opacity:0.3019608; stroke-linejoin: miter">
<path d="M1080.843,204.98181L1080.843,204.98181L1080.8428,1351.708C1080.8428,1353.1732,1079.655,1354.3611,1078.19,1354.3611C1076.7249,1354.3611,1075.5369,1353.1732,1075.5369,1351.708L1075.5369,1351.708L1075.5374,204.98181C1075.5374,203.51656,1076.7251,202.32881,1078.1902,202.32881C1079.6553,202.32881,1080.843,203.51656,1080.843,204.98181 Z"/>
</g>
<g style="fill:rgb(0,0,0); fill-opacity:0.3019608; stroke-linejoin: miter">
<path d="M140.345,204.9817L140.345,204.9817L140.34473,1351.7079C140.34473,1353.1731,139.15697,1354.361,137.69179,1354.361C136.2266,1354.361,135.03879,1353.1731,135.03879,1351.7079L135.03879,1351.7079L135.03911,204.9817C135.03911,203.51645,136.22687,202.3287,137.69206,202.3287C139.15724,202.3287,140.345,203.51645,140.345,204.9817 Z"/>
</g>
</g>
<g>
<g>
<g style="fill:rgb(255,0,0); fill-opacity:1.0; stroke-linejoin: miter">
<path d="M84.035614,543.6008L96.08865,543.60144L108.14167,543.602Q108.141716,615.4005,108.14171,687.1986Q96.0887,687.1992,84.035675,687.19977Q84.035645,615.4004,84.035614,543.6008"/>
</g>
<g style="fill:rgb(255,0,0); fill-opacity:1.0; stroke-linejoin: miter">
<path d="M97.799545,522.85333L96.06562,522.8535L94.33168,522.85364Q94.33171,618.45044,94.33176,714.0472Q96.06569,714.04736,97.7996,714.0475Q97.79957,618.45044,97.799545,522.85333"/>
</g>
</g>
<g>
<g style="fill:rgb(255,0,0); fill-opacity:1.0; stroke-linejoin: miter">
<path d="M114.79367,577.21405L126.84671,577.2147L138.89973,577.2153Q138.89973,649.0137,138.89978,720.8121Q126.846756,720.8126,114.793724,720.81305Q114.79367,649.0136,114.79367,577.21405"/>
</g>
<g style="fill:rgb(255,0,0); fill-opacity:1.0; stroke-linejoin: miter">
<path d="M128.5576,556.4666L126.82368,556.4668L125.08972,556.4668Q125.08979,652.0638,125.0898,747.6604Q126.823715,747.6606,128.55765,747.6607Q128.55765,652.0638,128.5576,556.4666"/>
</g>
</g>
<g>
<g style="fill:rgb(255,0,0); fill-opacity:1.0; stroke-linejoin: miter">
<path d="M145.55174,632.9815L157.60474,632.9821L169.65778,632.9827Q169.65776,704.781,169.65775,776.5794Q157.60474,776.57983,145.55173,776.5804Q145.55173,704.78094,145.55174,632.9815"/>
</g>
<g style="fill:rgb(255,0,0); fill-opacity:1.0; stroke-linejoin: miter">
<path d="M159.31564,612.2342L157.58171,612.23425L155.84778,612.23444Q155.84776,707.83105,155.84781,803.4278Q157.58173,803.4279,159.31569,803.42816Q159.31564,707.83105,159.31564,612.2342"/>
</g>
</g>
<g>
<g style="fill:rgb(255,0,0); fill-opacity:1.0; stroke-linejoin: miter">
<path d="M176.30975,682.9019L188.3628,682.90247L200.41583,682.90314Q200.41577,754.70135,200.41577,826.4998Q188.36275,826.50024,176.30978,826.50085Q176.30978,754.7013,176.30975,682.9019"/>
</g>
<g style="fill:rgb(255,0,0); fill-opacity:1.0; stroke-linejoin: miter">
<path d="M190.07372,662.15436L188.33977,662.15454L186.6058,662.15466Q186.6058,757.7514,186.6058,853.3481Q188.33972,853.34814,190.07365,853.3484Q190.07365,757.75134,190.07372,662.15436"/>
</g>
</g>
<g>
<g style="fill:rgb(255,0,0); fill-opacity:1.0; stroke-linejoin: miter">
<path d="M207.06778,715.7512L219.12082,715.75195L231.17384,715.75244Q231.17384,787.5508,231.17378,859.349Q219.12079,859.34955,207.06776,859.3501Q207.0678,787.5508,207.06778,715.7512"/>
</g>
<g style="fill:rgb(255,0,0); fill-opacity:1.0; stroke-linejoin: miter">
<path d="M220.8317,695.0037L219.0978,695.0039L217.36383,695.004Q217.36383,790.6008,217.36385,886.1976Q219.09781,886.19775,220.83174,886.1979Q220.83171,790.6008,220.8317,695.0037"/>
</g>
</g>
</g>
<g>
<g>
<g style="fill:rgb(76,175,80); fill-opacity:1.0; stroke-linejoin: miter">
<path d="M238.65016,795.8265L250.70319,795.82587L262.75623,795.8254Q262.75623,724.0269,262.7563,652.22845Q250.70323,652.22797,238.65018,652.22736Q238.65013,724.0269,238.65016,795.8265"/>
</g>
<g style="fill:rgb(76,175,80); fill-opacity:1.0; stroke-linejoin: miter">
<path d="M252.41411,816.574L250.68015,816.5737L248.94618,816.57355Q248.94621,720.97687,248.94623,625.38007Q250.68013,625.37994,252.41412,625.37976Q252.41414,720.97687,252.41411,816.574"/>
</g>
</g>
<g>
<g style="fill:rgb(76,175,80); fill-opacity:1.0; stroke-linejoin: miter">
<path d="M269.4082,762.2131L281.46124,762.2126L293.51428,762.2121Q293.51434,690.41376,293.5144,618.61536Q281.4613,618.61475,269.40826,618.61414Q269.40823,690.41364,269.4082,762.2131"/>
</g>
<g style="fill:rgb(76,175,80); fill-opacity:1.0; stroke-linejoin: miter">
<path d="M283.17224,782.9608L281.4383,782.96063L279.70438,782.9605Q279.7044,687.36365,279.7044,591.76685Q281.4383,591.76666,283.17224,591.76654Q283.17224,687.36365,283.17224,782.9608"/>
</g>
</g>
<g>
<g style="fill:rgb(76,175,80); fill-opacity:1.0; stroke-linejoin: miter">
<path d="M300.16632,706.446L312.2194,706.4454L324.27246,706.44495Q324.2725,634.6465,324.27258,562.848Q312.21945,562.8475,300.16638,562.8468Q300.16635,634.6464,300.16632,706.446"/>
</g>
<g style="fill:rgb(76,175,80); fill-opacity:1.0; stroke-linejoin: miter">
<path d="M313.93033,727.1934L312.19635,727.1933L310.46243,727.1932Q310.46243,631.5963,310.46246,535.9995Q312.1964,535.9994,313.9304,535.99927Q313.93036,631.5963,313.93033,727.1934"/>
</g>
</g>
<g>
<g style="fill:rgb(76,175,80); fill-opacity:1.0; stroke-linejoin: miter">
<path d="M330.92447,656.5257L342.97754,656.52515L355.0306,656.5246Q355.03058,584.72614,355.03064,512.9277Q342.9776,512.92706,330.9245,512.92645Q330.9245,584.72614,330.92447,656.5257"/>
</g>
<g style="fill:rgb(76,175,80); fill-opacity:1.0; stroke-linejoin: miter">
<path d="M344.68842,677.27325L342.95444,677.2732L341.22052,677.27295Q341.22058,581.6761,341.2206,486.07913Q342.95453,486.07898,344.6885,486.07886Q344.68845,581.67615,344.68842,677.27325"/>
</g>
</g>
<g>
<g style="fill:rgb(76,175,80); fill-opacity:1.0; stroke-linejoin: miter">
<path d="M361.68256,623.67633L373.73566,623.67584L385.7887,623.67535Q385.78876,551.8769,385.78876,480.07825Q373.73575,480.07773,361.68268,480.07715Q361.68262,551.8768,361.68256,623.67633"/>
</g>
<g style="fill:rgb(76,175,80); fill-opacity:1.0; stroke-linejoin: miter">
<path d="M375.44656,644.424L373.71262,644.4238L371.97867,644.4237Q371.97876,548.8268,371.9788,453.22986Q373.71265,453.22968,375.44666,453.22955Q375.4466,548.8267,375.44656,644.424"/>
</g>
</g>
</g>
<g>
<g>
<g style="fill:rgb(255,0,0); fill-opacity:1.0; stroke-linejoin: miter">
<path d="M389.85455,604.306L401.90762,604.3066L413.96063,604.30725Q413.9605,676.1056,413.9605,747.90393Q401.90747,747.9045,389.8544,747.905Q389.85446,676.1055,389.85455,604.306"/>
</g>
<g style="fill:rgb(255,0,0); fill-opacity:1.0; stroke-linejoin: miter">
<path d="M403.61844,583.55835L401.88452,583.5586L400.15063,583.55865Q400.1505,679.15564,400.15045,774.75244Q401.8844,774.7526,403.6183,774.7527Q403.61838,679.1557,403.61844,583.55835"/>
</g>
</g>
<g>
<g style="fill:rgb(255,0,0); fill-opacity:1.0; stroke-linejoin: miter">
<path d="M420.61258,637.91925L432.6657,637.9198L444.71872,637.9204Q444.71872,709.71893,444.7186,781.5173Q432.6656,781.5178,420.61252,781.5184Q420.61258,709.7188,420.61258,637.91925"/>
</g>
<g style="fill:rgb(255,0,0); fill-opacity:1.0; stroke-linejoin: miter">
<path d="M434.37662,617.1717L432.64264,617.1719L430.9087,617.1721Q430.90863,712.7689,430.90854,808.3656Q432.6425,808.3657,434.37646,808.3659Q434.37656,712.7689,434.37662,617.1717"/>
</g>
</g>
<g>
<g style="fill:rgb(255,0,0); fill-opacity:1.0; stroke-linejoin: miter">
<path d="M451.3706,693.6867L463.4237,693.68726L475.47675,693.6879Q475.47675,765.4863,475.4766,837.2848Q463.42358,837.28534,451.3705,837.2858Q451.37064,765.4863,451.3706,693.6867"/>
</g>
<g style="fill:rgb(255,0,0); fill-opacity:1.0; stroke-linejoin: miter">
<path d="M465.13464,672.9392L463.40067,672.9394L461.66678,672.9396Q461.66672,768.5364,461.66656,864.1331Q463.40048,864.1332,465.13446,864.13336Q465.13458,768.5364,465.13464,672.9392"/>
</g>
</g>
<g>
<g style="fill:rgb(255,0,0); fill-opacity:1.0; stroke-linejoin: miter">
<path d="M482.12872,743.6071L494.18185,743.6077L506.23483,743.6083Q506.23477,815.4066,506.23462,887.2051Q494.18167,887.2057,482.12857,887.2062Q482.12872,815.4066,482.12872,743.6071"/>
</g>
<g style="fill:rgb(255,0,0); fill-opacity:1.0; stroke-linejoin: miter">
<path d="M495.8928,722.8597L494.1588,722.8598L492.4249,722.8599Q492.42468,818.45667,492.4246,914.05347Q494.15857,914.05365,495.89252,914.05383Q495.8926,818.45667,495.8928,722.8597"/>
</g>
</g>
<g>
<g style="fill:rgb(255,0,0); fill-opacity:1.0; stroke-linejoin: miter">
<path d="M512.88684,776.45654L524.9399,776.4571L536.9929,776.4577Q536.99286,848.25604,536.99255,920.05426Q524.93964,920.0548,512.8866,920.0553Q512.8867,848.25604,512.88684,776.45654"/>
</g>
<g style="fill:rgb(255,0,0); fill-opacity:1.0; stroke-linejoin: miter">
<path d="M526.6508,755.70905L524.9169,755.7091L523.18286,755.7093Q523.1828,851.306,523.1826,946.9028Q524.9167,946.90295,526.6506,946.90314Q526.65076,851.3061,526.6508,755.70905"/>
</g>
</g>
</g>
<g>
<g>
<g style="fill:rgb(255,0,0); fill-opacity:1.0; stroke-linejoin: miter">
<path d="M547.8188,819.30145L559.8717,819.30206L571.9248,819.3027Q571.92487,891.1012,571.9246,962.89954Q559.8715,962.8999,547.81854,962.90045Q547.8187,891.10114,547.8188,819.30145"/>
</g>
<g style="fill:rgb(255,0,0); fill-opacity:1.0; stroke-linejoin: miter">
<path d="M561.5826,798.554L559.84875,798.5541L558.11475,798.55426Q558.11475,894.15125,558.11456,989.74774Q559.8485,989.74786,561.5824,989.7482Q561.58264,894.1513,561.5826,798.554"/>
</g>
</g>
<g>
<g style="fill:rgb(255,0,0); fill-opacity:1.0; stroke-linejoin: miter">
<path d="M578.57697,852.9149L590.62994,852.9155L602.6831,852.91614Q602.68274,924.71423,602.68274,996.5127Q590.6297,996.51324,578.57666,996.5138Q578.5767,924.7142,578.57697,852.9149"/>
</g>
<g style="fill:rgb(255,0,0); fill-opacity:1.0; stroke-linejoin: miter">
<path d="M592.3409,832.1674L590.607,832.16766L588.87305,832.16785Q588.8727,927.76434,588.8726,1023.361Q590.6065,1023.36127,592.3405,1023.36145Q592.3407,927.76434,592.3409,832.1674"/>
</g>
</g>
<g>
<g style="fill:rgb(255,0,0); fill-opacity:1.0; stroke-linejoin: miter">
<path d="M609.335,908.6823L621.38806,908.6829L633.4411,908.6836Q633.44086,980.4818,633.4409,1052.2803Q621.38776,1052.2806,609.3347,1052.2812Q609.3348,980.48175,609.335,908.6823"/>
</g>
<g style="fill:rgb(255,0,0); fill-opacity:1.0; stroke-linejoin: miter">
<path d="M623.099,887.9349L621.36505,887.935L619.631,887.9352Q619.63074,983.5318,619.63074,1079.1285Q621.36487,1079.1288,623.09875,1079.1289Q623.09875,983.5318,623.099,887.9349"/>
</g>
</g>
<g>
<g style="fill:rgb(255,0,0); fill-opacity:1.0; stroke-linejoin: miter">
<path d="M640.09296,958.6027L652.14606,958.6034L664.19916,958.6039Q664.19904,1030.4022,664.199,1102.2006Q652.1459,1102.2012,640.0928,1102.2017Q640.0928,1030.4022,640.09296,958.6027"/>
</g>
<g style="fill:rgb(255,0,0); fill-opacity:1.0; stroke-linejoin: miter">
<path d="M653.857,937.8552L652.123,937.8553L650.38904,937.8554Q650.3889,1033.452,650.3886,1129.0488Q652.12256,1129.0491,653.85675,1129.0493Q653.85675,1033.4521,653.857,937.8552"/>
</g>
</g>
<g>
<g style="fill:rgb(255,0,0); fill-opacity:1.0; stroke-linejoin: miter">
<path d="M670.8512,991.452L682.90424,991.4527L694.9572,991.45325Q694.9571,1063.2517,694.9569,1135.0498Q682.9037,1135.0504,670.8508,1135.0509Q670.851,1063.2515,670.8512,991.452"/>
</g>
<g style="fill:rgb(255,0,0); fill-opacity:1.0; stroke-linejoin: miter">
<path d="M684.61505,970.70465L682.8812,970.7048L681.1473,970.705Q681.147,1066.3016,681.14685,1161.8984Q682.8808,1161.8986,684.61475,1161.8988Q684.615,1066.3016,684.61505,970.70465"/>
</g>
</g>
</g>
<g>
<g>
<g style="fill:rgb(255,0,0); fill-opacity:1.0; stroke-linejoin: miter">
<path d="M703.49835,1006.6653L715.5514,1006.666L727.6045,1006.66656Q727.6047,1078.4651,727.60474,1150.2637Q715.5517,1150.2644,703.49866,1150.2648Q703.4986,1078.4651,703.49835,1006.6653"/>
</g>
<g style="fill:rgb(255,0,0); fill-opacity:1.0; stroke-linejoin: miter">
<path d="M717.2623,985.91785L715.52844,985.9181L713.79443,985.9182Q713.79474,1081.515,713.7948,1177.1122Q715.5288,1177.1123,717.26263,1177.1123Q717.26263,1081.515,717.2623,985.91785"/>
</g>
</g>
<g>
<g style="fill:rgb(255,0,0); fill-opacity:1.0; stroke-linejoin: miter">
<path d="M734.25653,1040.2788L746.3095,1040.2794L758.3626,1040.28Q758.36273,1112.0786,758.363,1183.8771Q746.30994,1183.8776,734.25684,1183.8782Q734.2566,1112.0786,734.25653,1040.2788"/>
</g>
<g style="fill:rgb(255,0,0); fill-opacity:1.0; stroke-linejoin: miter">
<path d="M748.02045,1019.5311L746.28656,1019.53143L744.5526,1019.53143Q744.55273,1115.1287,744.5529,1210.7255Q746.28687,1210.7256,748.0208,1210.7257Q748.0205,1115.1287,748.02045,1019.5311"/>
</g>
</g>
<g>
<g style="fill:rgb(255,0,0); fill-opacity:1.0; stroke-linejoin: miter">
<path d="M765.0148,1096.0461L777.06775,1096.0468L789.1206,1096.0474Q789.1207,1167.8461,789.12085,1239.6445Q777.06775,1239.6448,765.0149,1239.6455Q765.0149,1167.846,765.0148,1096.0461"/>
</g>
<g style="fill:rgb(255,0,0); fill-opacity:1.0; stroke-linejoin: miter">
<path d="M778.7786,1075.2987L777.0446,1075.2987L775.31085,1075.2992Q775.31085,1170.8961,775.311,1266.4929Q777.04486,1266.4929,778.7788,1266.4932Q778.7786,1170.8961,778.7786,1075.2987"/>
</g>
</g>
<g>
<g style="fill:rgb(255,0,0); fill-opacity:1.0; stroke-linejoin: miter">
<path d="M795.77277,1145.9669L807.8257,1145.9675L819.87897,1145.9683Q819.8789,1217.7664,819.87897,1289.5651Q807.8259,1289.5654,795.7729,1289.5659Q795.7727,1217.7662,795.77277,1145.9669"/>
</g>
<g style="fill:rgb(255,0,0); fill-opacity:1.0; stroke-linejoin: miter">
<path d="M809.53656,1125.2194L807.8027,1125.2195L806.06866,1125.2196Q806.06885,1220.8163,806.06903,1316.4135Q807.8029,1316.4135,809.5369,1316.4136Q809.53656,1220.8163,809.53656,1125.2194"/>
</g>
</g>
<g>
<g style="fill:rgb(255,0,0); fill-opacity:1.0; stroke-linejoin: miter">
<path d="M826.5309,1178.8163L838.58386,1178.8169L850.6369,1178.8175Q850.6371,1250.616,850.637,1322.4143Q838.5839,1322.4149,826.531,1322.4154Q826.53094,1250.616,826.5309,1178.8163"/>
</g>
<g style="fill:rgb(255,0,0); fill-opacity:1.0; stroke-linejoin: miter">
<path d="M840.2948,1158.0688L838.5609,1158.0691L836.82697,1158.0691Q836.8271,1253.6659,836.8271,1349.2627Q838.5611,1349.2628,840.29486,1349.2631Q840.2949,1253.6659,840.2948,1158.0688"/>
</g>
</g>
</g>
<g>
<g>
<g style="fill:rgb(76,175,80); fill-opacity:1.0; stroke-linejoin: miter">
<path d="M864.9203,1269.8385L876.9732,1269.8376L889.0263,1269.8374Q889.0261,1198.0387,889.02606,1126.2404Q876.97296,1126.2399,864.92,1126.2391Q864.9201,1198.0387,864.9203,1269.8385"/>
</g>
<g style="fill:rgb(76,175,80); fill-opacity:1.0; stroke-linejoin: miter">
<path d="M878.6842,1290.5859L876.95013,1290.5857L875.21625,1290.5857Q875.2162,1194.9888,875.216,1099.3917Q876.94995,1099.3915,878.68384,1099.3915Q878.68414,1194.9888,878.6842,1290.5859"/>
</g>
</g>
<g>
<g style="fill:rgb(76,175,80); fill-opacity:1.0; stroke-linejoin: miter">
<path d="M895.67816,1236.2251L907.7312,1236.2245L919.7843,1236.224Q919.78436,1164.4257,919.7843,1092.627Q907.73096,1092.6263,895.678,1092.6257Q895.67816,1164.4257,895.67816,1236.2251"/>
</g>
<g style="fill:rgb(76,175,80); fill-opacity:1.0; stroke-linejoin: miter">
<path d="M909.4423,1256.9728L907.7083,1256.9727L905.9744,1256.9725Q905.97437,1161.3757,905.9742,1065.7787Q907.708,1065.7784,909.4421,1065.7782Q909.44214,1161.3757,909.4423,1256.9728"/>
</g>
</g>
<g>
<g style="fill:rgb(76,175,80); fill-opacity:1.0; stroke-linejoin: miter">
<path d="M926.4364,1180.4578L938.4895,1180.4573L950.5425,1180.4568Q950.54224,1108.658,950.54224,1036.8595Q938.4893,1036.859,926.4362,1036.8583Q926.43616,1108.658,926.4364,1180.4578"/>
</g>
<g style="fill:rgb(76,175,80); fill-opacity:1.0; stroke-linejoin: miter">
<path d="M940.20026,1201.2052L938.4664,1201.2051L936.7325,1201.205Q936.73224,1105.6079,936.73236,1010.01105Q938.46625,1010.0109,940.20013,1010.0108Q940.20013,1105.6079,940.20026,1201.2052"/>
</g>
</g>
<g>
<g style="fill:rgb(76,175,80); fill-opacity:1.0; stroke-linejoin: miter">
<path d="M957.19434,1130.5375L969.2473,1130.537L981.3005,1130.5364Q981.3006,1058.7378,981.3004,986.93915Q969.2472,986.93854,957.19415,986.938Q957.19446,1058.7378,957.19434,1130.5375"/>
</g>
<g style="fill:rgb(76,175,80); fill-opacity:1.0; stroke-linejoin: miter">
<path d="M970.95844,1151.2852L969.2245,1151.2852L967.4905,1151.2849Q967.4905,1055.6876,967.49023,960.09064Q969.2242,960.0905,970.9582,960.0903Q970.95844,1055.6879,970.95844,1151.2852"/>
</g>
</g>
<g>
<g style="fill:rgb(76,175,80); fill-opacity:1.0; stroke-linejoin: miter">
<path d="M987.9525,1097.6879L1000.0054,1097.6874L1012.0586,1097.6868Q1012.0585,1025.8885,1012.0585,954.0898Q1000.0055,954.08923,987.9523,954.0887Q987.9525,1025.8885,987.9525,1097.6879"/>
</g>
<g style="fill:rgb(76,175,80); fill-opacity:1.0; stroke-linejoin: miter">
<path d="M1001.71625,1118.4357L999.98224,1118.4355L998.2485,1118.4354Q998.24854,1022.8384,998.2482,927.2412Q999.9825,927.241,1001.71625,927.2409Q1001.7164,1022.83826,1001.71625,1118.4357"/>
</g>
</g>
</g>
<g>
<g>
<g style="fill:rgb(76,175,80); fill-opacity:1.0; stroke-linejoin: miter">
<path d="M1020.7151,972.7804L1032.7681,972.7797L1044.8212,972.7793Q1044.8213,900.98096,1044.8209,829.18256Q1032.768,829.18195,1020.71497,829.1813Q1020.7151,900.98096,1020.7151,972.7804"/>
</g>
<g style="fill:rgb(76,175,80); fill-opacity:1.0; stroke-linejoin: miter">
<path d="M1034.4791,993.52783L1032.7451,993.5275L1031.0111,993.5274Q1031.0111,897.9309,1031.0107,802.33405Q1032.7449,802.334,1034.4788,802.3338Q1034.4792,897.9309,1034.4791,993.52783"/>
</g>
</g>
<g>
<g style="fill:rgb(76,175,80); fill-opacity:1.0; stroke-linejoin: miter">
<path d="M1051.4733,939.16724L1063.526,939.1665L1075.5791,939.16595Q1075.5791,867.3677,1075.5793,795.56946Q1063.5259,795.5688,1051.4731,795.56824Q1051.4733,867.3678,1051.4733,939.16724"/>
</g>
<g style="fill:rgb(76,175,80); fill-opacity:1.0; stroke-linejoin: miter">
<path d="M1065.237,959.91473L1063.503,959.9146L1061.7692,959.9145Q1061.7693,864.3178,1061.769,768.7209Q1063.5028,768.72064,1065.2368,768.7204Q1065.237,864.3178,1065.237,959.91473"/>
</g>
</g>
<g>
<g style="fill:rgb(76,175,80); fill-opacity:1.0; stroke-linejoin: miter">
<path d="M1082.2314,883.39996L1094.2844,883.3993L1106.3374,883.3989Q1106.3373,811.60034,1106.3372,739.80194Q1094.2842,739.8014,1082.2312,739.8007Q1082.2313,811.6004,1082.2314,883.39996"/>
</g>
<g style="fill:rgb(76,175,80); fill-opacity:1.0; stroke-linejoin: miter">
<path d="M1095.9952,904.14734L1094.2612,904.1472L1092.5272,904.1471Q1092.5271,808.5503,1092.5272,712.9535Q1094.261,712.95337,1095.995,712.9531Q1095.9951,808.5503,1095.9952,904.14734"/>
</g>
</g>
<g>
<g style="fill:rgb(76,175,80); fill-opacity:1.0; stroke-linejoin: miter">
<path d="M1112.9895,833.4796L1125.0425,833.47906L1137.0956,833.4785Q1137.0953,761.68,1137.0952,689.8814Q1125.042,689.8808,1112.9888,689.8802Q1112.9891,761.68,1112.9895,833.4796"/>
</g>
<g style="fill:rgb(76,175,80); fill-opacity:1.0; stroke-linejoin: miter">
<path d="M1126.7535,854.2272L1125.0195,854.2272L1123.2855,854.22687Q1123.2852,758.63,1123.285,663.03296Q1125.019,663.0327,1126.753,663.03253Q1126.7532,758.63007,1126.7535,854.2272"/>
</g>
</g>
<g>
<g style="fill:rgb(76,175,80); fill-opacity:1.0; stroke-linejoin: miter">
<path d="M1143.7474,800.6302L1155.8005,800.62976L1167.8535,800.6292Q1167.8534,728.83075,1167.8533,657.03204Q1155.8003,657.0315,1143.7472,657.0309Q1143.7474,728.83075,1143.7474,800.6302"/>
</g>
<g style="fill:rgb(76,175,80); fill-opacity:1.0; stroke-linejoin: miter">
<path d="M1157.5112,821.37787L1155.7775,821.37775L1154.0435,821.3776Q1154.0435,725.78064,1154.0432,630.1837Q1155.7772,630.1835,1157.5112,630.1834Q1157.5114,725.78064,1157.5112,821.37787"/>
</g>
</g>
</g>
<g style="fill:rgb(3,169,244); fill-opacity:1.0; stroke-linejoin: miter">
<path d="M135.92542,496.20447L135.92542,496.20447L135.92542,496.20547L127.94117,492.1759C143.38367,480.77362,161.078,467.40604,176.40536,467.40607L176.40536,467.40607C187.93633,467.4061,196.90417,474.6129,202.82607,489.60565L202.82607,489.60565C210.68883,509.5123,214.33803,545.9429,217.2355,574.48846L217.2355,574.48846C219.2994,594.82184,220.94328,610.4551,223.03395,615.7481L223.03395,615.7481C223.19757,616.1624,223.30273,616.3407,223.3194,616.36664L223.31947,616.3667C223.36389,616.4358,223.13582,616.03503,222.51164,615.65466L222.51146,615.6545C221.9976,615.3414,221.30574,615.10114,220.50905,615.10114L220.50905,615.10114C218.86789,615.10114,218.09515,616.0638,218.26212,615.8856L218.26213,615.8856C220.6644,613.3228,224.86147,598.9156,230.27905,579.4592L230.27905,579.4592C236.21114,558.1553,243.33247,532.2699,250.80905,521.70404L250.80908,521.70404C254.2039,516.9065,258.33813,514.21704,263.26474,514.21704L263.26474,514.21704C268.75256,514.21704,273.84174,517.7878,277.2283,520.0221L277.22833,520.0221C281.69897,522.97186,284.61996,524.70447,287.30948,524.70447L287.30948,524.70447C289.01404,524.70447,291.83105,523.9254,295.72397,518.2877L295.72397,518.2877C301.13934,510.44522,307.16684,495.3897,314.0067,478.20306L314.0067,478.20306C321.72195,458.81696,330.36478,437.01974,339.83862,423.29987L339.83862,423.29987C345.32758,415.3507,352.35724,408.2104,361.0832,408.2104L361.0832,408.2104C363.23465,408.2104,365.35562,408.6547,367.41367,409.5228L367.41367,409.5228C384.56512,416.75732,401.5754,458.5298,418.0423,497.8784L418.0423,497.8784C431.65985,530.4184,445.57294,563.58936,459.7138,583.5223L459.7138,583.5223C478.1551,609.5169,496.83066,612.6385,513.01855,615.385L513.01855,615.385C523.94556,617.2389,535.73035,619.01605,543.6116,629.65326L543.6116,629.65326C551.3064,640.03906,554.85736,658.67523,558.56616,677.47565L558.56616,677.47565C563.5511,702.74457,569.03766,730.06555,582.90216,748.77844L582.90216,748.77844C583.44226,749.5074,583.9973,750.2258,584.5619,750.92554L584.562,750.9256C594.71075,763.5046,609.3068,771.91364,627.4378,782.2665L627.4378,782.2665C652.0732,796.3337,681.9115,813.3463,710.47485,848.74927L710.47485,848.74927C714.7423,854.03864,718.97626,859.7314,723.16046,865.88275L723.16046,865.88275C751.2884,907.2342,777.17004,969.4014,798.19354,1019.85236L798.19354,1019.85236C813.01404,1055.4174,825.23944,1084.6796,834.267,1097.9513L834.26697,1097.9512C836.3299,1100.9838,837.94403,1102.743,839.0765,1103.5757L839.07623,1103.5756C839.6152,1103.9717,839.8787,1104.0317,839.88086,1104.0322L839.8799,1104.032C839.8769,1104.0314,839.84546,1104.0249,839.789,1104.0249L839.789,1104.0249C839.6368,1104.0249,839.5221,1104.0695,839.4976,1104.082L841.7813,1108.54L841.7813,1108.54L841.7813,1108.54L841.7813,1108.54L839.498,1104.0818C845.866,1100.8203,849.36194,1064.7341,852.3714,1024.973L852.3714,1024.973C853.9513,1004.1002,855.465,983.8826,858.11926,972.61005L858.11926,972.61005C859.58734,966.375,861.725,961.2758,865.58997,958.7972L865.5901,958.7971C867.1688,957.7846,868.90625,957.2966,870.6792,957.2966L870.6792,957.2966C870.91797,957.2966,871.1534,957.3053,871.3863,957.32214L871.3856,957.322C876.9882,957.7254,882.33246,963.2576,885.5439,966.33527L885.54395,966.3353C890.63306,971.2126,893.45734,973.44354,895.1762,973.44354L895.1762,973.44354C895.24414,973.44354,895.78784,973.5292,896.85614,972.1628L896.85614,972.16284C901.73645,965.92065,906.2128,945.8369,911.5868,920.87744L911.5868,920.87744C917.4538,893.6283,924.24066,861.74084,934.54974,845.23553L934.54974,845.23553C942.73883,832.12445,953.3174,828.15027,963.50696,828.15027L963.50696,828.15027C970.3773,828.15027,976.9476,829.9579,981.908,831.30145L981.908,831.30145C985.92426,832.38916,988.4193,833.0218,990.069,833.0218L990.069,833.0218C990.45844,833.0218,990.62274,832.9795,990.63464,832.9761L990.63464,832.9761C990.62805,832.97797,990.4917,833.01996,990.3144,833.15753L990.3145,833.1575C990.1465,833.2876,990.07446,833.40063,990.07074,833.4068L990.07074,833.4068C990.76447,832.2672,990.84344,828.63153,990.4414,819.49805L990.4414,819.49805C989.74384,803.659,988.59534,778.22974,1001.1826,748.9236L1001.1826,748.9236C1020.9832,702.8231,1074.8444,647.4416,1127.5239,593.1592C1129.4506,591.17395,1132.6217,591.1264,1134.6069,593.053C1136.592,594.9796,1136.6395,598.1508,1134.7131,600.13605L1134.7131,600.13605C1081.4039,655.06726,1029.2758,708.9006,1010.3874,752.8771L1010.3874,752.8771C998.7564,779.9568,999.7606,803.41406,1000.4495,819.0573L1000.4495,819.0573C1000.76263,826.1655,1001.35297,834.1395,998.62775,838.6159L998.628,838.61584C998.0834,839.5103,997.37134,840.36255,996.4516,841.0755L996.4516,841.07544C995.4849,841.82465,994.4342,842.3078,993.3989,842.605L993.3989,842.605C992.25287,842.934,991.1134,843.0397,990.069,843.0397L990.069,843.0397C986.7685,843.0397,982.7539,841.9093,979.28925,840.97095L979.2891,840.97095C974.1451,839.57776,968.8365,838.1683,963.5071,838.1683L963.5071,838.1683C956.5159,838.1683,949.27325,840.57306,943.0464,850.5425L943.0464,850.5425C933.90625,865.17645,927.4424,894.8309,921.3803,922.98615L921.3803,922.98615C916.37134,946.25037,911.4655,969.7414,904.74817,978.3332L904.74817,978.3332C902.24646,981.53296,899.0103,983.4614,895.1762,983.4614L895.1762,983.4614C888.4398,983.4614,882.2339,977.0387,878.61237,973.56793L878.6124,973.56805C873.9799,969.1285,871.73895,967.3914,870.66644,967.3142L870.6658,967.31415C870.6658,967.31415,870.6716,967.31445,870.6792,967.31445L870.6792,967.31445C870.80066,967.31445,870.9441,967.2645,870.99786,967.23004L870.9979,967.23C870.7732,967.3741,869.3123,968.78235,867.8705,974.90607L867.8705,974.90607C865.4438,985.2121,863.9745,1004.4079,862.3607,1025.7291L862.3607,1025.7291C859.77136,1059.9395,857.02216,1106.3619,844.06464,1112.9983L841.7813,1108.54L841.7813,1108.54L841.7813,1108.54L841.7813,1108.54L844.06506,1112.9982C842.77057,1113.6613,841.32776,1114.0428,839.789,1114.0428L839.789,1114.0428C839.09674,1114.0428,838.4165,1113.9656,837.7519,1113.8212L837.75085,1113.8209C836.03687,1113.448,834.4997,1112.6447,833.1423,1111.6467L833.1421,1111.6466C830.6232,1109.7947,828.24243,1106.906,825.9839,1103.5857L825.9838,1103.5856C816.2225,1089.2354,803.5142,1058.6643,788.9465,1023.7057L788.9465,1023.7057C767.78796,972.9309,742.3074,911.8426,714.87726,871.517L714.87726,871.517C710.844,865.58765,706.7731,860.11523,702.6781,855.0397L702.6781,855.0397C675.378,821.2023,646.9761,804.9591,622.47034,790.96606L622.47034,790.96606C604.74176,780.84283,588.32404,771.54266,576.7652,757.216L576.7654,757.2161C576.11084,756.40497,575.4742,755.58075,574.8529,754.7422L574.8529,754.7422C559.3811,733.86005,553.59973,704.06055,548.73773,679.41455L548.73773,679.41455C544.8059,659.4839,541.57275,643.7295,535.5622,635.61707L535.5622,635.61707C530.45764,628.72736,523.0425,627.24677,511.34277,625.2617L511.34277,625.2617C494.28284,622.36725,472.31036,618.59216,451.54312,589.3188L451.54312,589.3188C436.6067,568.2644,422.23444,533.8458,408.801,501.7458L408.801,501.7458C391.01865,459.25375,375.75894,423.91544,363.5202,418.7531L363.5202,418.7531C362.62646,418.37613,361.82565,418.22827,361.08316,418.22827L361.08316,418.22827C357.91077,418.22827,353.52972,421.10303,348.08215,428.99216L348.08215,428.99216C339.4038,441.56003,331.2011,462.09082,323.3146,481.9074L323.3146,481.9074C316.69907,498.53027,310.19623,514.9597,303.96753,523.98L303.96753,523.98C299.03882,531.1178,293.54272,534.72235,287.30945,534.72235L287.30945,534.72235C281.02277,534.72235,275.44846,530.84973,271.71124,528.38403L271.7113,528.38403C267.42865,525.55835,265.09976,524.235,263.26474,524.235L263.26474,524.235C262.58124,524.235,261.16104,524.4178,258.98663,527.4907L258.98666,527.4906C252.80124,536.2319,246.17096,559.73254,239.92981,582.14655L239.92981,582.14655C235.1085,599.46136,230.18262,617.817,225.57101,622.7367L225.57103,622.7367C224.75755,623.60455,223.04564,625.1191,220.50905,625.1191L220.50905,625.1191C219.2997,625.1191,218.20595,624.7622,217.29825,624.2091L217.29808,624.2089C216.12337,623.493,215.36282,622.5155,214.89209,621.7831L214.89215,621.78314C214.40685,621.0281,214.02533,620.21014,213.71657,619.42847L213.71657,619.42847C210.96306,612.4573,209.22256,594.74817,207.26881,575.5002L207.26881,575.5002C204.29932,546.2451,200.73116,511.57153,193.50867,493.28592L193.50867,493.28592C188.50319,480.6133,182.41548,477.42395,176.40536,477.42395L176.40536,477.42395C165.19843,477.42392,150.6708,487.84583,133.89178,500.23505C132.37091,501.358,130.34738,501.52902,128.65967,500.67725C126.971924,499.82547,125.90753,498.096,125.90753,496.20547L125.90753,496.20547L125.90753,496.20447C125.90753,493.43814,128.15012,491.1955,130.91647,491.1955C133.68286,491.1955,135.92542,493.43814,135.92542,496.20447 Z"/>
</g>
</g>
</svg>